<?xml version="1.0" encoding="UTF-8" standalone="no"?><svg xmlns="http://www.w3.org/2000/svg" xmlns:xlink="http://www.w3.org/1999/xlink" contentScriptType="application/ecmascript" contentStyleType="text/css" height="888px" preserveAspectRatio="none" style="width:1322px;height:888px;" version="1.1" viewBox="0 0 1322 888" width="1322px" zoomAndPan="magnify"><defs><filter height="300%" id="fd68ackiz4wyn" width="300%" x="-1" y="-1"><feGaussianBlur result="blurOut" stdDeviation="2.0"/><feColorMatrix in="blurOut" result="blurOut2" type="matrix" values="0 0 0 0 0 0 0 0 0 0 0 0 0 0 0 0 0 0 .4 0"/><feOffset dx="4.0" dy="4.0" in="blurOut2" result="blurOut3"/><feBlend in="SourceGraphic" in2="blurOut3" mode="normal"/></filter></defs><g><rect fill="#FFFFFF" filter="url(#fd68ackiz4wyn)" height="375.5938" style="stroke: #A80036; stroke-width: 1.0;" width="10" x="83" y="112.5625"/><rect fill="#FFFFFF" filter="url(#fd68ackiz4wyn)" height="40.1328" style="stroke: #A80036; stroke-width: 1.0;" width="10" x="88" y="411.8906"/><rect fill="#FFFFFF" filter="url(#fd68ackiz4wyn)" height="87.3984" style="stroke: #A80036; stroke-width: 1.0;" width="10" x="358" y="589.5547"/><rect fill="#FFFFFF" filter="url(#fd68ackiz4wyn)" height="87.3984" style="stroke: #A80036; stroke-width: 1.0;" width="10" x="358" y="706.0859"/><rect fill="#FFFFFF" filter="url(#fd68ackiz4wyn)" height="233.0625" style="stroke: #A80036; stroke-width: 1.0;" width="10" x="439.5" y="141.6953"/><rect fill="#FFFFFF" filter="url(#fd68ackiz4wyn)" height="29.1328" style="stroke: #A80036; stroke-width: 1.0;" width="10" x="689.5" y="618.6875"/><rect fill="#FFFFFF" filter="url(#fd68ackiz4wyn)" height="29.1328" style="stroke: #A80036; stroke-width: 1.0;" width="10" x="795" y="229.0938"/><rect fill="#FFFFFF" filter="url(#fd68ackiz4wyn)" height="29.1328" style="stroke: #A80036; stroke-width: 1.0;" width="10" x="904.5" y="287.3594"/><line style="stroke: #A80036; stroke-width: 1.0; stroke-dasharray: 5.0,5.0;" x1="87.5" x2="87.5" y1="38.2969" y2="840.6172"/><line style="stroke: #A80036; stroke-width: 1.0; stroke-dasharray: 5.0,5.0;" x1="247" x2="247" y1="38.2969" y2="840.6172"/><line style="stroke: #A80036; stroke-width: 1.0; stroke-dasharray: 5.0,5.0;" x1="363" x2="363" y1="38.2969" y2="840.6172"/><line style="stroke: #A80036; stroke-width: 1.0; stroke-dasharray: 5.0,5.0;" x1="444" x2="444" y1="38.2969" y2="840.6172"/><line style="stroke: #A80036; stroke-width: 1.0; stroke-dasharray: 5.0,5.0;" x1="544" x2="544" y1="38.2969" y2="840.6172"/><line style="stroke: #A80036; stroke-width: 1.0; stroke-dasharray: 5.0,5.0;" x1="694.5" x2="694.5" y1="38.2969" y2="840.6172"/><line style="stroke: #A80036; stroke-width: 1.0; stroke-dasharray: 5.0,5.0;" x1="799.5" x2="799.5" y1="38.2969" y2="840.6172"/><line style="stroke: #A80036; stroke-width: 1.0; stroke-dasharray: 5.0,5.0;" x1="909.5" x2="909.5" y1="38.2969" y2="840.6172"/><line style="stroke: #A80036; stroke-width: 1.0; stroke-dasharray: 5.0,5.0;" x1="1046.5" x2="1046.5" y1="38.2969" y2="840.6172"/><line style="stroke: #A80036; stroke-width: 1.0; stroke-dasharray: 5.0,5.0;" x1="1173.5" x2="1173.5" y1="38.2969" y2="840.6172"/><line style="stroke: #A80036; stroke-width: 1.0; stroke-dasharray: 5.0,5.0;" x1="1267.5" x2="1267.5" y1="38.2969" y2="840.6172"/><rect fill="#FEFECE" filter="url(#fd68ackiz4wyn)" height="30.2969" style="stroke: #A80036; stroke-width: 1.5;" width="41" x="65.5" y="3"/><text fill="#000000" font-family="sans-serif" font-size="14" lengthAdjust="spacingAndGlyphs" textLength="27" x="72.5" y="22.9951">Aop</text><rect fill="#FEFECE" filter="url(#fd68ackiz4wyn)" height="30.2969" style="stroke: #A80036; stroke-width: 1.5;" width="41" x="65.5" y="839.6172"/><text fill="#000000" font-family="sans-serif" font-size="14" lengthAdjust="spacingAndGlyphs" textLength="27" x="72.5" y="859.6123">Aop</text><rect fill="#FEFECE" filter="url(#fd68ackiz4wyn)" height="30.2969" style="stroke: #A80036; stroke-width: 1.5;" width="64" x="213" y="3"/><text fill="#000000" font-family="sans-serif" font-size="14" lengthAdjust="spacingAndGlyphs" textLength="50" x="220" y="22.9951">Service</text><rect fill="#FEFECE" filter="url(#fd68ackiz4wyn)" height="30.2969" style="stroke: #A80036; stroke-width: 1.5;" width="64" x="213" y="839.6172"/><text fill="#000000" font-family="sans-serif" font-size="14" lengthAdjust="spacingAndGlyphs" textLength="50" x="220" y="859.6123">Service</text><rect fill="#FEFECE" filter="url(#fd68ackiz4wyn)" height="30.2969" style="stroke: #A80036; stroke-width: 1.5;" width="84" x="319" y="3"/><text fill="#000000" font-family="sans-serif" font-size="14" lengthAdjust="spacingAndGlyphs" textLength="70" x="326" y="22.9951">Invocation</text><rect fill="#FEFECE" filter="url(#fd68ackiz4wyn)" height="30.2969" style="stroke: #A80036; stroke-width: 1.5;" width="84" x="319" y="839.6172"/><text fill="#000000" font-family="sans-serif" font-size="14" lengthAdjust="spacingAndGlyphs" textLength="70" x="326" y="859.6123">Invocation</text><rect fill="#FEFECE" filter="url(#fd68ackiz4wyn)" height="30.2969" style="stroke: #A80036; stroke-width: 1.5;" width="51" x="417" y="3"/><text fill="#000000" font-family="sans-serif" font-size="14" lengthAdjust="spacingAndGlyphs" textLength="37" x="424" y="22.9951">Proxy</text><rect fill="#FEFECE" filter="url(#fd68ackiz4wyn)" height="30.2969" style="stroke: #A80036; stroke-width: 1.5;" width="51" x="417" y="839.6172"/><text fill="#000000" font-family="sans-serif" font-size="14" lengthAdjust="spacingAndGlyphs" textLength="37" x="424" y="859.6123">Proxy</text><rect fill="#FEFECE" filter="url(#fd68ackiz4wyn)" height="30.2969" style="stroke: #A80036; stroke-width: 1.5;" width="121" x="482" y="3"/><text fill="#000000" font-family="sans-serif" font-size="14" lengthAdjust="spacingAndGlyphs" textLength="107" x="489" y="22.9951">ProxyGenerator</text><rect fill="#FEFECE" filter="url(#fd68ackiz4wyn)" height="30.2969" style="stroke: #A80036; stroke-width: 1.5;" width="121" x="482" y="839.6172"/><text fill="#000000" font-family="sans-serif" font-size="14" lengthAdjust="spacingAndGlyphs" textLength="107" x="489" y="859.6123">ProxyGenerator</text><rect fill="#FEFECE" filter="url(#fd68ackiz4wyn)" height="30.2969" style="stroke: #A80036; stroke-width: 1.5;" width="104" x="640.5" y="3"/><text fill="#000000" font-family="sans-serif" font-size="14" lengthAdjust="spacingAndGlyphs" textLength="90" x="647.5" y="22.9951">ProxyMethod</text><rect fill="#FEFECE" filter="url(#fd68ackiz4wyn)" height="30.2969" style="stroke: #A80036; stroke-width: 1.5;" width="104" x="640.5" y="839.6172"/><text fill="#000000" font-family="sans-serif" font-size="14" lengthAdjust="spacingAndGlyphs" textLength="90" x="647.5" y="859.6123">ProxyMethod</text><rect fill="#FEFECE" filter="url(#fd68ackiz4wyn)" height="30.2969" style="stroke: #A80036; stroke-width: 1.5;" width="79" x="758.5" y="3"/><text fill="#000000" font-family="sans-serif" font-size="14" lengthAdjust="spacingAndGlyphs" textLength="65" x="765.5" y="22.9951">Template</text><rect fill="#FEFECE" filter="url(#fd68ackiz4wyn)" height="30.2969" style="stroke: #A80036; stroke-width: 1.5;" width="79" x="758.5" y="839.6172"/><text fill="#000000" font-family="sans-serif" font-size="14" lengthAdjust="spacingAndGlyphs" textLength="65" x="765.5" y="859.6123">Template</text><rect fill="#FEFECE" filter="url(#fd68ackiz4wyn)" height="30.2969" style="stroke: #A80036; stroke-width: 1.5;" width="112" x="851.5" y="3"/><text fill="#000000" font-family="sans-serif" font-size="14" lengthAdjust="spacingAndGlyphs" textLength="98" x="858.5" y="22.9951">ProxyCompiler</text><rect fill="#FEFECE" filter="url(#fd68ackiz4wyn)" height="30.2969" style="stroke: #A80036; stroke-width: 1.5;" width="112" x="851.5" y="839.6172"/><text fill="#000000" font-family="sans-serif" font-size="14" lengthAdjust="spacingAndGlyphs" textLength="98" x="858.5" y="859.6123">ProxyCompiler</text><rect fill="#FEFECE" filter="url(#fd68ackiz4wyn)" height="30.2969" style="stroke: #A80036; stroke-width: 1.5;" width="135" x="977.5" y="3"/><text fill="#000000" font-family="sans-serif" font-size="14" lengthAdjust="spacingAndGlyphs" textLength="121" x="984.5" y="22.9951">ProxyClassLoader</text><rect fill="#FEFECE" filter="url(#fd68ackiz4wyn)" height="30.2969" style="stroke: #A80036; stroke-width: 1.5;" width="135" x="977.5" y="839.6172"/><text fill="#000000" font-family="sans-serif" font-size="14" lengthAdjust="spacingAndGlyphs" textLength="121" x="984.5" y="859.6123">ProxyClassLoader</text><rect fill="#FEFECE" filter="url(#fd68ackiz4wyn)" height="30.2969" style="stroke: #A80036; stroke-width: 1.5;" width="90" x="1126.5" y="3"/><text fill="#000000" font-family="sans-serif" font-size="14" lengthAdjust="spacingAndGlyphs" textLength="76" x="1133.5" y="22.9951">Interceptor</text><rect fill="#FEFECE" filter="url(#fd68ackiz4wyn)" height="30.2969" style="stroke: #A80036; stroke-width: 1.5;" width="90" x="1126.5" y="839.6172"/><text fill="#000000" font-family="sans-serif" font-size="14" lengthAdjust="spacingAndGlyphs" textLength="76" x="1133.5" y="859.6123">Interceptor</text><rect fill="#FEFECE" filter="url(#fd68ackiz4wyn)" height="30.2969" style="stroke: #A80036; stroke-width: 1.5;" width="71" x="1230.5" y="3"/><text fill="#000000" font-family="sans-serif" font-size="14" lengthAdjust="spacingAndGlyphs" textLength="57" x="1237.5" y="22.9951">Callback</text><rect fill="#FEFECE" filter="url(#fd68ackiz4wyn)" height="30.2969" style="stroke: #A80036; stroke-width: 1.5;" width="71" x="1230.5" y="839.6172"/><text fill="#000000" font-family="sans-serif" font-size="14" lengthAdjust="spacingAndGlyphs" textLength="57" x="1237.5" y="859.6123">Callback</text><rect fill="#FFFFFF" filter="url(#fd68ackiz4wyn)" height="375.5938" style="stroke: #A80036; stroke-width: 1.0;" width="10" x="83" y="112.5625"/><rect fill="#FFFFFF" filter="url(#fd68ackiz4wyn)" height="40.1328" style="stroke: #A80036; stroke-width: 1.0;" width="10" x="88" y="411.8906"/><rect fill="#FFFFFF" filter="url(#fd68ackiz4wyn)" height="87.3984" style="stroke: #A80036; stroke-width: 1.0;" width="10" x="358" y="589.5547"/><rect fill="#FFFFFF" filter="url(#fd68ackiz4wyn)" height="87.3984" style="stroke: #A80036; stroke-width: 1.0;" width="10" x="358" y="706.0859"/><rect fill="#FFFFFF" filter="url(#fd68ackiz4wyn)" height="233.0625" style="stroke: #A80036; stroke-width: 1.0;" width="10" x="439.5" y="141.6953"/><rect fill="#FFFFFF" filter="url(#fd68ackiz4wyn)" height="29.1328" style="stroke: #A80036; stroke-width: 1.0;" width="10" x="689.5" y="618.6875"/><rect fill="#FFFFFF" filter="url(#fd68ackiz4wyn)" height="29.1328" style="stroke: #A80036; stroke-width: 1.0;" width="10" x="795" y="229.0938"/><rect fill="#FFFFFF" filter="url(#fd68ackiz4wyn)" height="29.1328" style="stroke: #A80036; stroke-width: 1.0;" width="10" x="904.5" y="287.3594"/><rect fill="#EEEEEE" filter="url(#fd68ackiz4wyn)" height="3" style="stroke: #EEEEEE; stroke-width: 1.0;" width="1307.5" x="3" y="68.8633"/><line style="stroke: #000000; stroke-width: 1.0;" x1="3" x2="1310.5" y1="68.8633" y2="68.8633"/><line style="stroke: #000000; stroke-width: 1.0;" x1="3" x2="1310.5" y1="71.8633" y2="71.8633"/><rect fill="#EEEEEE" filter="url(#fd68ackiz4wyn)" height="23.1328" style="stroke: #000000; stroke-width: 2.0;" width="61" x="626.25" y="58.2969"/><text fill="#000000" font-family="sans-serif" font-size="13" font-weight="bold" lengthAdjust="spacingAndGlyphs" textLength="42" x="632.25" y="74.3638">配置态</text><polygon fill="#A80036" points="71,108.5625,81,112.5625,71,116.5625,75,112.5625" style="stroke: #A80036; stroke-width: 1.0;"/><line style="stroke: #A80036; stroke-width: 1.0;" x1="3" x2="77" y1="112.5625" y2="112.5625"/><text fill="#000000" font-family="sans-serif" font-size="13" font-weight="bold" lengthAdjust="spacingAndGlyphs" textLength="9" x="10" y="107.4966">1</text><text fill="#000000" font-family="sans-serif" font-size="13" lengthAdjust="spacingAndGlyphs" textLength="21" x="23" y="107.4966">get</text><polygon fill="#A80036" points="427.5,137.6953,437.5,141.6953,427.5,145.6953,431.5,141.6953" style="stroke: #A80036; stroke-width: 1.0;"/><line style="stroke: #A80036; stroke-width: 1.0;" x1="93" x2="433.5" y1="141.6953" y2="141.6953"/><text fill="#000000" font-family="sans-serif" font-size="13" font-weight="bold" lengthAdjust="spacingAndGlyphs" textLength="9" x="100" y="136.6294">2</text><text fill="#000000" font-family="sans-serif" font-size="13" lengthAdjust="spacingAndGlyphs" textLength="21" x="113" y="136.6294">get</text><polygon fill="#A80036" points="532.5,166.8281,542.5,170.8281,532.5,174.8281,536.5,170.8281" style="stroke: #A80036; stroke-width: 1.0;"/><line style="stroke: #A80036; stroke-width: 1.0;" x1="449.5" x2="538.5" y1="170.8281" y2="170.8281"/><text fill="#000000" font-family="sans-serif" font-size="13" font-weight="bold" lengthAdjust="spacingAndGlyphs" textLength="9" x="456.5" y="165.7622">3</text><text fill="#000000" font-family="sans-serif" font-size="13" lengthAdjust="spacingAndGlyphs" textLength="58" x="469.5" y="165.7622">generate</text><polygon fill="#A80036" points="682.5,195.9609,692.5,199.9609,682.5,203.9609,686.5,199.9609" style="stroke: #A80036; stroke-width: 1.0;"/><line style="stroke: #A80036; stroke-width: 1.0;" x1="544.5" x2="688.5" y1="199.9609" y2="199.9609"/><text fill="#000000" font-family="sans-serif" font-size="13" font-weight="bold" lengthAdjust="spacingAndGlyphs" textLength="9" x="551.5" y="194.895">4</text><text fill="#000000" font-family="sans-serif" font-size="13" lengthAdjust="spacingAndGlyphs" textLength="113" x="564.5" y="194.895">构建 ProxyMethod</text><polygon fill="#A80036" points="783,225.0938,793,229.0938,783,233.0938,787,229.0938" style="stroke: #A80036; stroke-width: 1.0;"/><line style="stroke: #A80036; stroke-width: 1.0;" x1="544.5" x2="789" y1="229.0938" y2="229.0938"/><text fill="#000000" font-family="sans-serif" font-size="13" font-weight="bold" lengthAdjust="spacingAndGlyphs" textLength="9" x="551.5" y="224.0278">5</text><text fill="#000000" font-family="sans-serif" font-size="13" lengthAdjust="spacingAndGlyphs" textLength="95" x="564.5" y="224.0278">renderToString</text><polygon fill="#A80036" points="555.5,254.2266,545.5,258.2266,555.5,262.2266,551.5,258.2266" style="stroke: #A80036; stroke-width: 1.0;"/><line style="stroke: #A80036; stroke-width: 1.0; stroke-dasharray: 2.0,2.0;" x1="549.5" x2="799" y1="258.2266" y2="258.2266"/><text fill="#000000" font-family="sans-serif" font-size="13" font-weight="bold" lengthAdjust="spacingAndGlyphs" textLength="9" x="561.5" y="253.1606">6</text><text fill="#000000" font-family="sans-serif" font-size="13" lengthAdjust="spacingAndGlyphs" textLength="91" x="574.5" y="253.1606">构建之后的源码</text><polygon fill="#A80036" points="892.5,283.3594,902.5,287.3594,892.5,291.3594,896.5,287.3594" style="stroke: #A80036; stroke-width: 1.0;"/><line style="stroke: #A80036; stroke-width: 1.0;" x1="449.5" x2="898.5" y1="287.3594" y2="287.3594"/><text fill="#000000" font-family="sans-serif" font-size="13" font-weight="bold" lengthAdjust="spacingAndGlyphs" textLength="9" x="456.5" y="282.2935">7</text><text fill="#000000" font-family="sans-serif" font-size="13" lengthAdjust="spacingAndGlyphs" textLength="50" x="469.5" y="282.2935">compile</text><polygon fill="#A80036" points="460.5,312.4922,450.5,316.4922,460.5,320.4922,456.5,316.4922" style="stroke: #A80036; stroke-width: 1.0;"/><line style="stroke: #A80036; stroke-width: 1.0; stroke-dasharray: 2.0,2.0;" x1="454.5" x2="908.5" y1="316.4922" y2="316.4922"/><text fill="#000000" font-family="sans-serif" font-size="13" font-weight="bold" lengthAdjust="spacingAndGlyphs" textLength="9" x="466.5" y="311.4263">8</text><text fill="#000000" font-family="sans-serif" font-size="13" lengthAdjust="spacingAndGlyphs" textLength="91" x="479.5" y="311.4263">编译后的字节码</text><polygon fill="#A80036" points="1035,341.625,1045,345.625,1035,349.625,1039,345.625" style="stroke: #A80036; stroke-width: 1.0;"/><line style="stroke: #A80036; stroke-width: 1.0;" x1="449.5" x2="1041" y1="345.625" y2="345.625"/><text fill="#000000" font-family="sans-serif" font-size="13" font-weight="bold" lengthAdjust="spacingAndGlyphs" textLength="9" x="456.5" y="340.5591">9</text><text fill="#000000" font-family="sans-serif" font-size="13" lengthAdjust="spacingAndGlyphs" textLength="96" x="469.5" y="340.5591">loadProxyClass</text><polygon fill="#A80036" points="104,370.7578,94,374.7578,104,378.7578,100,374.7578" style="stroke: #A80036; stroke-width: 1.0;"/><line style="stroke: #A80036; stroke-width: 1.0; stroke-dasharray: 2.0,2.0;" x1="98" x2="443.5" y1="374.7578" y2="374.7578"/><text fill="#000000" font-family="sans-serif" font-size="13" font-weight="bold" lengthAdjust="spacingAndGlyphs" textLength="18" x="110" y="369.6919">10</text><text fill="#000000" font-family="sans-serif" font-size="13" lengthAdjust="spacingAndGlyphs" textLength="88" x="132" y="369.6919">增强后的 class</text><line style="stroke: #A80036; stroke-width: 1.0;" x1="93" x2="140" y1="398.8906" y2="398.8906"/><line style="stroke: #A80036; stroke-width: 1.0;" x1="140" x2="140" y1="398.8906" y2="411.8906"/><line style="stroke: #A80036; stroke-width: 1.0;" x1="99" x2="140" y1="411.8906" y2="411.8906"/><polygon fill="#A80036" points="109,407.8906,99,411.8906,109,415.8906,105,411.8906" style="stroke: #A80036; stroke-width: 1.0;"/><text fill="#000000" font-family="sans-serif" font-size="13" font-weight="bold" lengthAdjust="spacingAndGlyphs" textLength="18" x="105" y="393.8247">11</text><text fill="#000000" font-family="sans-serif" font-size="13" lengthAdjust="spacingAndGlyphs" textLength="50" x="127" y="393.8247">doInject</text><line style="stroke: #A80036; stroke-width: 1.0; stroke-dasharray: 2.0,2.0;" x1="98" x2="140" y1="451.0234" y2="451.0234"/><line style="stroke: #A80036; stroke-width: 1.0; stroke-dasharray: 2.0,2.0;" x1="140" x2="140" y1="451.0234" y2="464.0234"/><line style="stroke: #A80036; stroke-width: 1.0; stroke-dasharray: 2.0,2.0;" x1="93" x2="140" y1="464.0234" y2="464.0234"/><polygon fill="#A80036" points="103,460.0234,93,464.0234,103,468.0234,99,464.0234" style="stroke: #A80036; stroke-width: 1.0;"/><text fill="#000000" font-family="sans-serif" font-size="13" font-weight="bold" lengthAdjust="spacingAndGlyphs" textLength="18" x="105" y="445.9575">12</text><text fill="#000000" font-family="sans-serif" font-size="13" lengthAdjust="spacingAndGlyphs" textLength="108" x="127" y="445.9575">注入之后的 object</text><polygon fill="#A80036" points="14,484.1563,4,488.1563,14,492.1563,10,488.1563" style="stroke: #A80036; stroke-width: 1.0;"/><line style="stroke: #A80036; stroke-width: 1.0; stroke-dasharray: 2.0,2.0;" x1="8" x2="87" y1="488.1563" y2="488.1563"/><text fill="#000000" font-family="sans-serif" font-size="13" font-weight="bold" lengthAdjust="spacingAndGlyphs" textLength="18" x="20" y="483.0903">13</text><text fill="#000000" font-family="sans-serif" font-size="13" lengthAdjust="spacingAndGlyphs" textLength="39" x="42" y="483.0903">object</text><rect fill="#EEEEEE" filter="url(#fd68ackiz4wyn)" height="3" style="stroke: #EEEEEE; stroke-width: 1.0;" width="1307.5" x="3" y="516.7227"/><line style="stroke: #000000; stroke-width: 1.0;" x1="3" x2="1310.5" y1="516.7227" y2="516.7227"/><line style="stroke: #000000; stroke-width: 1.0;" x1="3" x2="1310.5" y1="519.7227" y2="519.7227"/><rect fill="#EEEEEE" filter="url(#fd68ackiz4wyn)" height="23.1328" style="stroke: #000000; stroke-width: 2.0;" width="61" x="626.25" y="506.1563"/><text fill="#000000" font-family="sans-serif" font-size="13" font-weight="bold" lengthAdjust="spacingAndGlyphs" textLength="42" x="632.25" y="522.2231">运行态</text><polygon fill="#A80036" points="235,556.4219,245,560.4219,235,564.4219,239,560.4219" style="stroke: #A80036; stroke-width: 1.0;"/><line style="stroke: #A80036; stroke-width: 1.0;" x1="3" x2="241" y1="560.4219" y2="560.4219"/><text fill="#000000" font-family="sans-serif" font-size="13" font-weight="bold" lengthAdjust="spacingAndGlyphs" textLength="18" x="10" y="555.356">14</text><text fill="#000000" font-family="sans-serif" font-size="13" lengthAdjust="spacingAndGlyphs" textLength="50" x="32" y="555.356">method</text><polygon fill="#A80036" points="346,585.5547,356,589.5547,346,593.5547,350,589.5547" style="stroke: #A80036; stroke-width: 1.0;"/><line style="stroke: #A80036; stroke-width: 1.0;" x1="247" x2="352" y1="589.5547" y2="589.5547"/><text fill="#000000" font-family="sans-serif" font-size="13" font-weight="bold" lengthAdjust="spacingAndGlyphs" textLength="18" x="254" y="584.4888">15</text><text fill="#000000" font-family="sans-serif" font-size="13" lengthAdjust="spacingAndGlyphs" textLength="25" x="276" y="584.4888">new</text><polygon fill="#A80036" points="677.5,614.6875,687.5,618.6875,677.5,622.6875,681.5,618.6875" style="stroke: #A80036; stroke-width: 1.0;"/><line style="stroke: #A80036; stroke-width: 1.0;" x1="368" x2="683.5" y1="618.6875" y2="618.6875"/><text fill="#000000" font-family="sans-serif" font-size="13" font-weight="bold" lengthAdjust="spacingAndGlyphs" textLength="18" x="375" y="613.6216">16</text><text fill="#000000" font-family="sans-serif" font-size="13" lengthAdjust="spacingAndGlyphs" textLength="128" x="397" y="613.6216">构建 getInterceptors</text><polygon fill="#A80036" points="379,643.8203,369,647.8203,379,651.8203,375,647.8203" style="stroke: #A80036; stroke-width: 1.0;"/><line style="stroke: #A80036; stroke-width: 1.0; stroke-dasharray: 2.0,2.0;" x1="373" x2="693.5" y1="647.8203" y2="647.8203"/><text fill="#000000" font-family="sans-serif" font-size="13" font-weight="bold" lengthAdjust="spacingAndGlyphs" textLength="18" x="385" y="642.7544">17</text><text fill="#000000" font-family="sans-serif" font-size="13" lengthAdjust="spacingAndGlyphs" textLength="92" x="407" y="642.7544">InterceptorList</text><polygon fill="#A80036" points="258,672.9531,248,676.9531,258,680.9531,254,676.9531" style="stroke: #A80036; stroke-width: 1.0;"/><line style="stroke: #A80036; stroke-width: 1.0; stroke-dasharray: 2.0,2.0;" x1="252" x2="362" y1="676.9531" y2="676.9531"/><text fill="#000000" font-family="sans-serif" font-size="13" font-weight="bold" lengthAdjust="spacingAndGlyphs" textLength="18" x="264" y="671.8872">18</text><text fill="#000000" font-family="sans-serif" font-size="13" lengthAdjust="spacingAndGlyphs" textLength="65" x="286" y="671.8872">Invocation</text><polygon fill="#A80036" points="346,702.0859,356,706.0859,346,710.0859,350,706.0859" style="stroke: #A80036; stroke-width: 1.0;"/><line style="stroke: #A80036; stroke-width: 1.0;" x1="247" x2="352" y1="706.0859" y2="706.0859"/><text fill="#000000" font-family="sans-serif" font-size="13" font-weight="bold" lengthAdjust="spacingAndGlyphs" textLength="18" x="254" y="701.02">19</text><text fill="#000000" font-family="sans-serif" font-size="13" lengthAdjust="spacingAndGlyphs" textLength="41" x="276" y="701.02">invoke</text><polygon fill="#A80036" points="1161.5,731.2188,1171.5,735.2188,1161.5,739.2188,1165.5,735.2188" style="stroke: #A80036; stroke-width: 1.0;"/><line style="stroke: #A80036; stroke-width: 1.0;" x1="368" x2="1167.5" y1="735.2188" y2="735.2188"/><text fill="#000000" font-family="sans-serif" font-size="13" font-weight="bold" lengthAdjust="spacingAndGlyphs" textLength="18" x="375" y="730.1528">20</text><text fill="#000000" font-family="sans-serif" font-size="13" lengthAdjust="spacingAndGlyphs" textLength="57" x="397" y="730.1528">intercept</text><polygon fill="#A80036" points="1256,760.3516,1266,764.3516,1256,768.3516,1260,764.3516" style="stroke: #A80036; stroke-width: 1.0;"/><line style="stroke: #A80036; stroke-width: 1.0;" x1="368" x2="1262" y1="764.3516" y2="764.3516"/><text fill="#000000" font-family="sans-serif" font-size="13" font-weight="bold" lengthAdjust="spacingAndGlyphs" textLength="18" x="375" y="759.2856">21</text><text fill="#000000" font-family="sans-serif" font-size="13" lengthAdjust="spacingAndGlyphs" textLength="21" x="397" y="759.2856">call</text><polygon fill="#A80036" points="258,789.4844,248,793.4844,258,797.4844,254,793.4844" style="stroke: #A80036; stroke-width: 1.0;"/><line style="stroke: #A80036; stroke-width: 1.0; stroke-dasharray: 2.0,2.0;" x1="252" x2="362" y1="793.4844" y2="793.4844"/><text fill="#000000" font-family="sans-serif" font-size="13" font-weight="bold" lengthAdjust="spacingAndGlyphs" textLength="18" x="264" y="788.4185">22</text><text fill="#000000" font-family="sans-serif" font-size="13" lengthAdjust="spacingAndGlyphs" textLength="36" x="286" y="788.4185">result</text><polygon fill="#A80036" points="14,818.6172,4,822.6172,14,826.6172,10,822.6172" style="stroke: #A80036; stroke-width: 1.0;"/><line style="stroke: #A80036; stroke-width: 1.0;" x1="8" x2="246" y1="822.6172" y2="822.6172"/><text fill="#000000" font-family="sans-serif" font-size="13" font-weight="bold" lengthAdjust="spacingAndGlyphs" textLength="18" x="20" y="817.5513">23</text><text fill="#000000" font-family="sans-serif" font-size="13" lengthAdjust="spacingAndGlyphs" textLength="36" x="42" y="817.5513">result</text></g></svg>